<svg width="1921" height="792" viewBox="0 0 1921 792" fill="none" xmlns="http://www.w3.org/2000/svg">
<rect x="1912.07" y="550.501" width="7.9903" height="7.9903" rx="3.995" fill="#FBB900" fill-opacity="0.2"/>
<rect x="846.892" y="487.488" width="7.9903" height="7.9903" rx="3.995" fill="#FBB900" fill-opacity="0.2"/>
<rect x="460.367" y="446.547" width="7.9903" height="7.9903" rx="3.995" fill="#FBB900" fill-opacity="0.2"/>
<rect x="955.016" y="684.526" width="7.9903" height="7.9903" rx="3.995" fill="#FBB900" fill-opacity="0.2"/>
<rect x="252.45" y="679.436" width="7.9903" height="7.9903" rx="3.995" fill="#FBB900" fill-opacity="0.2"/>
<rect x="563.321" y="591.222" width="7.9903" height="7.9903" rx="3.995" fill="#FBB900" fill-opacity="0.2"/>
<rect x="1275.46" y="772.549" width="7.9903" height="7.9903" rx="3.995" fill="#FBB900" fill-opacity="0.2"/>
<rect x="1142.32" y="475.258" width="7.9903" height="7.9903" rx="3.995" fill="#FBB900" fill-opacity="0.2"/>
<rect x="988.858" y="512.529" width="7.9903" height="7.9903" rx="3.995" fill="#FBB900" fill-opacity="0.2"/>
<rect x="1720.13" y="656.315" width="7.9903" height="7.9903" rx="3.995" fill="#FBB900" fill-opacity="0.2"/>
<rect x="1326.32" y="434.087" width="7.9903" height="7.9903" rx="3.995" fill="#FBB900" fill-opacity="0.2"/>
<rect x="208.278" y="491.339" width="7.9903" height="7.9903" rx="3.995" fill="#FBB900" fill-opacity="0.2"/>
</svg>
