<svg width="25" height="29" viewBox="0 0 25 29" fill="none" xmlns="http://www.w3.org/2000/svg">
<path d="M7.19804 24.5694V15.3559C6.34214 15.1209 5.62469 14.651 5.0457 13.9462C4.46671 13.2413 4.17721 12.419 4.17721 11.4792V4.43055H6.1911V11.4792H7.19804V4.43055H9.21193V11.4792H10.2189V4.43055H12.2328V11.4792C12.2328 12.419 11.9433 13.2413 11.3643 13.9462C10.7853 14.651 10.0678 15.1209 9.21193 15.3559V24.5694H7.19804ZM17.2675 24.5694V16.5139H14.2467V9.46527C14.2467 8.07233 14.7375 6.88498 15.7193 5.90321C16.7011 4.92144 17.8884 4.43055 19.2814 4.43055V24.5694H17.2675Z" fill="#D62300"/>
</svg>
